<svg xmlns="http://www.w3.org/2000/svg" width="40.5" height="36" viewBox="0 0 40.5 36">
  <path id="Icon_awesome-cart-plus" data-name="Icon awesome-cart-plus" d="M35.488,22.5H14.876l.46,2.25H34.209a1.688,1.688,0,0,1,1.646,2.061l-.388,1.707A3.939,3.939,0,1,1,31,29.25H16.255a3.937,3.937,0,1,1-4.714-.6L6.6,4.5H1.688A1.687,1.687,0,0,1,0,2.813V1.688A1.687,1.687,0,0,1,1.688,0H8.9A1.688,1.688,0,0,1,10.55,1.349L11.194,4.5H38.812a1.688,1.688,0,0,1,1.646,2.061L37.133,21.186A1.687,1.687,0,0,1,35.488,22.5Zm-6.8-10.687H25.313V9a1.125,1.125,0,0,0-1.125-1.125H23.063A1.125,1.125,0,0,0,21.938,9v2.813H18.563a1.125,1.125,0,0,0-1.125,1.125v1.125a1.125,1.125,0,0,0,1.125,1.125h3.375V18a1.125,1.125,0,0,0,1.125,1.125h1.125A1.125,1.125,0,0,0,25.313,18V15.188h3.375a1.125,1.125,0,0,0,1.125-1.125V12.938A1.125,1.125,0,0,0,28.688,11.813Z" fill="#112d4e"/>
</svg>
