<svg xmlns="http://www.w3.org/2000/svg" width="35.181" height="34.876" viewBox="0 0 35.181 34.876">
  <g id="bird" transform="translate(0 -2.222)">
    <path id="Path_1" data-name="Path 1" d="M1.031,183.59l12.248,0h.094A6.181,6.181,0,1,0,8.81,173.237l-8.5,8.587a1.03,1.03,0,0,0,.721,1.766Z" transform="translate(0 -157.395)" fill="#3f72af"/>
    <path id="Path_2" data-name="Path 2" d="M34.374,32.982H31.845l.3-.294A1.03,1.03,0,0,0,30.7,31.221l-1.785,1.761H21.147v-2.8a11.714,11.714,0,0,0,5.67-17.43,6.208,6.208,0,0,0,1.7-3.315h.84a1.03,1.03,0,0,0,0-2.06h-.838A6.181,6.181,0,0,0,16.242,8.4c0,.024,0,.048,0,.072l-3.289,3.319q.32-.025.643-.025a8.241,8.241,0,1,1,0,16.483h-.107l-3.886,0a11.779,11.779,0,0,0,5.364,2.482v2.248H1.269a1.03,1.03,0,1,0,0,2.06H20.675L22.458,36.8A1.03,1.03,0,0,0,23.9,35.334l-.3-.292H34.374a1.03,1.03,0,0,0,0-2.06ZM24.081,6.346a1.03,1.03,0,1,1-1.03,1.03A1.032,1.032,0,0,1,24.081,6.346ZM17.026,30.921h.015a11.739,11.739,0,0,0,2.045-.179v2.239h-2.06Z" transform="translate(-0.222)" fill="#3f72af"/>
  </g>
</svg>
