<svg xmlns="http://www.w3.org/2000/svg" width="22.919" height="21.486" viewBox="0 0 22.919 21.486">
  <path id="Icon_metro-cart" data-name="Icon metro-cart" d="M11.165,23.194a2.149,2.149,0,1,1-2.149-2.149,2.149,2.149,0,0,1,2.149,2.149Zm14.324,0a2.149,2.149,0,1,1-2.149-2.149A2.149,2.149,0,0,1,25.489,23.194Zm0-9.311V5.288H8.3A1.432,1.432,0,0,0,6.868,3.856h-4.3V5.288H5.436l1.076,9.222a2.864,2.864,0,0,0,1.789,5.1H25.489V18.18H8.3a1.432,1.432,0,0,1-1.432-1.432s0-.01,0-.015l18.621-2.85Z" transform="translate(-2.571 -3.856)" fill="#112d4e"/>
</svg>
