<svg xmlns="http://www.w3.org/2000/svg" width="31.434" height="35.924" viewBox="0 0 31.434 35.924">
  <path id="Icon_awesome-fire-alt" data-name="Icon awesome-fire-alt" d="M22.7,3.592A41.915,41.915,0,0,0,18.758,7.8,54.439,54.439,0,0,0,11.788,0C4.893,6.4,0,14.732,0,19.758A15.946,15.946,0,0,0,15.717,35.924,15.946,15.946,0,0,0,31.434,19.758c0-3.738-3.647-11.447-8.731-16.166Zm-1.366,23.9a9.43,9.43,0,0,1-5.419,1.694c-5.062,0-9.182-3.35-9.182-8.788,0-2.709,1.706-5.1,5.107-9.174.486.56,6.934,8.794,6.934,8.794l4.114-4.693c.29.481.555.951.791,1.4A8.369,8.369,0,0,1,21.336,27.494Z" fill="#3f72af"/>
</svg>
