<svg xmlns="http://www.w3.org/2000/svg" width="36.924" height="36.924" viewBox="0 0 36.924 36.924">
  <path id="Icon_metro-lightning5" data-name="Icon metro-lightning5" d="M39.495,11.652a6.436,6.436,0,0,0-6.431-6.427c-.173,0-.344.006-.515.019a8.839,8.839,0,0,0-13.8,0c-.171-.013-.344-.019-.518-.019A6.435,6.435,0,0,0,11.8,11.652a6.623,6.623,0,0,0,.108,1.085c-.039.051-.086.1-.123.15a8,8,0,0,0-1.139-.081,8.077,8.077,0,0,0,0,16.154,7.991,7.991,0,0,0,2.864-.529,11.47,11.47,0,0,0,4.558,2.395l-1.653,1.1,2.308,2.308-2.308,4.616,6.923-4.616-2.308-2.308.347-.691a11.411,11.411,0,0,0,7.174-2.807,7.991,7.991,0,0,0,2.864.529,8.087,8.087,0,0,0,8.077-8.077,7.989,7.989,0,0,0-1.707-4.9A6.373,6.373,0,0,0,39.495,11.652Z" transform="translate(-2.571 -1.928)" fill="#3f72af"/>
</svg>
