<svg xmlns="http://www.w3.org/2000/svg" width="36.5" height="36.5" viewBox="0 0 36.5 36.5">
  <path id="Icon_awesome-cloud-rain" data-name="Icon awesome-cloud-rain" d="M29.656,9.125c-.043,0-.078.014-.114.014a5.567,5.567,0,0,0,.114-1.155A5.68,5.68,0,0,0,19.6,4.334,7.957,7.957,0,0,0,4.563,7.984,8.107,8.107,0,0,0,4.712,9.5,6.826,6.826,0,0,0,6.844,22.812H29.656a6.844,6.844,0,1,0,0-13.687ZM6.273,26.676c-.912,3.165-2.852,4.021-2.852,6.252A3.5,3.5,0,0,0,6.844,36.5a3.5,3.5,0,0,0,3.422-3.572c0-2.238-1.939-3.073-2.852-6.252A.588.588,0,0,0,6.273,26.676Zm11.406,0c-.913,3.165-2.852,4.021-2.852,6.252a3.425,3.425,0,1,0,6.844,0c0-2.238-1.939-3.073-2.852-6.252A.588.588,0,0,0,17.68,26.676Zm11.406,0c-.912,3.165-2.852,4.021-2.852,6.252a3.425,3.425,0,1,0,6.844,0c0-2.238-1.939-3.073-2.852-6.252A.588.588,0,0,0,29.086,26.676Z" fill="#3f72af"/>
</svg>
