<svg xmlns="http://www.w3.org/2000/svg" width="19" height="29" viewBox="0 0 16.036 26.722">
  <path id="Icon_ionic-ios-musical-note" data-name="Icon ionic-ios-musical-note" d="M23.156,3.387c-.279.054-7.015,1.433-7.265,1.48a.527.527,0,0,0-.482.476h0V20.508a1.64,1.64,0,0,1-.143.7,1.584,1.584,0,0,1-.957.755c-.2.065-.464.125-.779.2-1.433.321-3.828.868-3.828,3.079a2.758,2.758,0,0,0,2.081,2.8,4.466,4.466,0,0,0,.82.059,7.036,7.036,0,0,0,3.044-.785,3.2,3.2,0,0,0,1.433-2.842V10.812a.472.472,0,0,1,.38-.464l5.517-1.13a.955.955,0,0,0,.761-.933V3.839A.47.47,0,0,0,23.156,3.387Z" transform="translate(-8.703 -2.372)" fill="#112d4e" />
</svg>
