<svg xmlns="http://www.w3.org/2000/svg" width="35.811" height="35.811" viewBox="0 0 35.811 35.811">
  <g id="wind" transform="translate(0 0)">
    <path id="Path_3" data-name="Path 3" d="M218.659,377.376a2.238,2.238,0,1,0-4.476,0H215.3a1.119,1.119,0,1,1,1.119,1.119l-16.421,0v1.119l16.421,0A2.241,2.241,0,0,0,218.659,377.376Z" transform="translate(-186.011 -348.9)" fill="#3f72af"/>
    <path id="Path_4" data-name="Path 4" d="M387.357,248a11.368,11.368,0,0,0-3.053,1.181.56.56,0,0,0,0,1,11.368,11.368,0,0,0,3.053,1.181,4.6,4.6,0,0,0,1.568-.371c.816-.343,1.23-.783,1.23-1.307s-.414-.964-1.23-1.307A4.6,4.6,0,0,0,387.357,248Z" transform="translate(-357.141 -230.654)" fill="#3f72af"/>
    <path id="Path_5" data-name="Path 5" d="M300.062,344.025a11.368,11.368,0,0,0-2.994,1.324,4.6,4.6,0,0,0-.846,1.371c-.335.82-.316,1.423.054,1.794a1.05,1.05,0,0,0,.776.293,2.764,2.764,0,0,0,1.019-.238,4.592,4.592,0,0,0,1.371-.846,11.363,11.363,0,0,0,1.324-2.994.56.56,0,0,0-.7-.7Z" transform="translate(-275.282 -319.937)" fill="#3f72af"/>
    <path id="Path_6" data-name="Path 6" d="M443.631,148.515a1.05,1.05,0,0,0,.776.293,2.764,2.764,0,0,0,1.019-.238,4.586,4.586,0,0,0,1.371-.846,11.363,11.363,0,0,0,1.324-2.994.56.56,0,0,0-.7-.7,11.369,11.369,0,0,0-2.994,1.324C443.961,145.81,442.814,147.7,443.631,148.515Z" transform="translate(-412.336 -133.927)" fill="#3f72af"/>
    <path id="Path_7" data-name="Path 7" d="M216,480h5.6v1.119H216Z" transform="translate(-200.892 -446.427)" fill="#3f72af"/>
    <path id="Path_8" data-name="Path 8" d="M0,455H5.6v1.119H0Z" transform="translate(0 -423.176)" fill="#3f72af"/>
    <path id="Path_9" data-name="Path 9" d="M19.584,27.977V26.858H12.31V25.841a6.559,6.559,0,0,0,.76.045,7.883,7.883,0,0,0,5.13-2.1,12.709,12.709,0,0,0,2.424-2.795.56.56,0,0,0-.084-.684l-.714-.714c3.145-.4,6.164-3.385,6.309-3.531a.56.56,0,0,0,.1-.646,5.947,5.947,0,0,0-1.384-1.642,8.746,8.746,0,0,0,5.47-3.275,10.156,10.156,0,0,0,1.559-7.246.56.56,0,0,0-.332-.413c-3.5-1.475-7.244-.472-8.985.164a4.863,4.863,0,0,0-.244-2.7.56.56,0,0,0-.5-.309,12.359,12.359,0,0,0-7.694,2.92A16.952,16.952,0,0,0,12.31,4.61V2.238a.56.56,0,0,0-.56-.56A11.783,11.783,0,0,0,0,13.429c0,5.081,2.411,7.855,4.433,9.287a11.722,11.722,0,0,0,3.96,1.8v2.342H3.357v1.119H8.393v7.834H9.512V20.7A19.478,19.478,0,0,1,10.591,14.2a.56.56,0,0,0-.04-.5L7.207,8.126l1.186-.642,3.823,5.7a22.414,22.414,0,0,1,5.44-5.44.56.56,0,0,0,.19-.215l2.238-4.476.619.309L19.584,7.134,23.851,5.6l.534,1.165A23.078,23.078,0,0,0,16.6,10.585a14.741,14.741,0,0,0-3.942,4.608,11.4,11.4,0,0,0-1.465,5.524V35.811H12.31V27.977Zm-.731-12.253a6.737,6.737,0,0,1-1.288-.97,6.755,6.755,0,0,1,1.609-.1,3.471,3.471,0,0,1,1.4,1A3.471,3.471,0,0,1,18.853,15.724Z" transform="translate(0)" fill="#3f72af"/>
    <path id="Path_10" data-name="Path 10" d="M400,475h7.834v1.119H400Z" transform="translate(-372.023 -441.777)" fill="#3f72af"/>
  </g>
</svg>
